<svg width="15" height="15" viewBox="0 0 15 15" fill="none" xmlns="http://www.w3.org/2000/svg">
<path d="M12.1644 9.58467C11.6416 9.06859 10.9891 9.06859 10.4697 9.58467C10.0734 9.97756 9.67722 10.3704 9.28767 10.77C9.18112 10.8799 9.09122 10.9032 8.96137 10.8299C8.705 10.6901 8.43198 10.5769 8.18559 10.4237C7.0369 9.7012 6.07467 8.77227 5.22231 7.72679C4.79946 7.20739 4.42322 6.65135 4.16019 6.0254C4.10692 5.89888 4.11691 5.81564 4.22012 5.71243C4.61634 5.32953 5.00256 4.93665 5.39212 4.54376C5.93483 3.99772 5.93483 3.35845 5.38879 2.80908C5.07914 2.4961 4.76949 2.18978 4.45985 1.87681C4.14021 1.55717 3.82391 1.23421 3.50094 0.917903C2.97821 0.408485 2.32562 0.408485 1.80621 0.921233C1.40667 1.31412 1.02377 1.71699 0.61757 2.10322C0.241333 2.45948 0.0515499 2.89564 0.0115955 3.40506C-0.0516656 4.23412 0.151436 5.01656 0.437775 5.77902C1.02377 7.35722 1.91609 8.75895 2.99818 10.0441C4.45985 11.7822 6.20452 13.1573 8.24552 14.1495C9.16447 14.5956 10.1167 14.9386 11.1522 14.9952C11.8647 15.0351 12.484 14.8553 12.9801 14.2993C13.3197 13.9197 13.7026 13.5734 14.0622 13.2105C14.5949 12.6711 14.5983 12.0186 14.0689 11.4858C13.4363 10.8499 12.8003 10.2173 12.1644 9.58467Z" fill="white"/>
</svg>
